<svg width="41" height="40" viewBox="0 0 41 40" fill="none" xmlns="http://www.w3.org/2000/svg">
<g clip-path="url(#clip0_5333_5947)">
<path d="M34.9993 21.695C34.9993 31.912 28.5423 38.5 20.5773 38.5C12.6123 38.5 6.15527 31.912 6.15527 21.695C6.15527 11.478 12.6113 1.5 20.5773 1.5C28.5433 1.5 34.9993 11.478 34.9993 21.695Z" fill="#FFDBC2"/>
<mask id="mask0_5333_5947" style="mask-type:alpha" maskUnits="userSpaceOnUse" x="6" y="1" width="29" height="38">
<path d="M34.9993 21.695C34.9993 31.912 28.5423 38.5 20.5773 38.5C12.6123 38.5 6.15527 31.912 6.15527 21.695C6.15527 11.478 12.6113 1.5 20.5773 1.5C28.5433 1.5 34.9993 11.478 34.9993 21.695Z" fill="#FFFEDD"/>
</mask>
<g mask="url(#mask0_5333_5947)">
<path d="M8.8758 23.4689C9.33197 23.928 10.0013 24.0397 10.5818 23.7538C12.425 22.8458 16.4832 20.6195 18.5553 17.7151C21.2885 13.8837 19.5915 9.32383 16.431 8.7961C14.6291 8.49524 13.374 9.33806 12.6277 10.118C12.2346 10.529 11.6103 10.4248 11.3715 9.90828C10.9191 8.92816 10.0059 7.72327 8.20406 7.42241C5.0435 6.89468 1.95718 10.6559 3.29726 15.1674C4.31296 18.5869 7.42762 22.0113 8.8758 23.4689Z" fill="#FF4099"/>
<path d="M32.8148 18.0513C33.292 18.2945 33.7946 18.1657 34.096 17.7229C35.0527 16.317 37.0793 13.0254 37.4925 9.81666C38.0374 5.58384 35.2592 2.2137 32.8856 2.82223C31.5324 3.16915 30.9598 4.32056 30.7175 5.24622C30.5898 5.73396 30.121 5.85415 29.7741 5.48808C29.1162 4.79322 28.0603 4.0593 26.7071 4.40623C24.3335 5.01475 23.5195 9.30585 26.0337 12.7544C27.9392 15.3682 31.2997 17.2792 32.8148 18.0513Z" fill="#FF4099"/>
<path d="M20.542 33.8584C20.8203 34.0472 21.1795 34.0472 21.4577 33.8584C22.341 33.2588 24.266 31.8267 25.0948 30.2237C26.1879 28.1091 24.9043 26 23.2079 26C22.2407 26 21.6588 26.519 21.3371 26.9651C21.1677 27.2002 20.8326 27.2002 20.6629 26.9651C20.3412 26.519 19.7593 26 18.7921 26C17.0957 26 15.8121 28.1091 16.9052 30.2237C17.7337 31.8264 19.6587 33.2588 20.542 33.8584Z" fill="#FF4099"/>
</g>
</g>
<defs>
<clipPath id="clip0_5333_5947">
<rect width="40" height="40" fill="white" transform="translate(0.5)"/>
</clipPath>
</defs>
</svg>
