<svg width="83" height="30" viewBox="0 0 83 30" fill="none" xmlns="http://www.w3.org/2000/svg">
<path d="M0 11C0 4.92487 4.92487 0 11 0H72C78.0751 0 83 4.92487 83 11C83 17.0751 78.0751 22 72 22H11C4.92487 22 0 17.0751 0 11Z" fill="#212223"/>
<path d="M16.9414 7.57031V8.75391H9.52344V5.54297H11.0117V7.57031H16.9414ZM18.0664 9.38672V10.582H13.8945V11.4141H16.8945V14.1914H10.9414V14.8594H17.2227V16.0078H9.44141V13.1484H15.4062V12.5391H9.41797V11.4141H12.4297V10.582H8.30469V9.38672H18.0664ZM27.4358 5.41406V16.1016H25.9475V10.4766H24.2248V9.25781H25.9475V5.41406H27.4358ZM23.6272 6.30469V10.3008H20.3108V12.3867C21.7815 12.375 23.0295 12.3223 24.4006 12.082L24.5178 13.3008C22.9358 13.5586 21.4827 13.6172 19.7014 13.6172H18.8225V9.11719H22.1741V7.51172H18.7991V6.30469H23.6272ZM32.6098 7.82812C32.6098 9.83203 33.4184 11.7773 35.1997 12.5508L34.2856 13.7461C33.102 13.166 32.311 12.1055 31.8716 10.793C31.4028 12.1875 30.5825 13.3301 29.3638 13.9336L28.4263 12.7148C30.2544 11.8945 31.0864 9.83203 31.0981 7.82812V6.23438H32.6098V7.82812ZM37.5786 5.41406V16.1016H36.102V9.97266H34.0044V8.76562H36.102V5.41406H37.5786ZM50.997 13.6406V14.8945H41.2353V13.6406H45.3369V11.7188H42.0439V10.5469H43.4736V7.5H41.997V6.30469H50.1767V7.5H48.6767V10.5469H50.1298V11.7188H46.8252V13.6406H50.997ZM44.9736 10.5469H47.2002V7.5H44.9736V10.5469ZM60.2961 5.42578V13.0898H58.7961V5.42578H60.2961ZM60.5773 14.6953V15.8906H53.1477V12.3164H54.6594V14.6953H60.5773ZM54.4484 6.10547C56.0891 6.10547 57.3664 7.23047 57.3664 8.78906C57.3664 10.3828 56.0891 11.4961 54.4484 11.4961C52.8078 11.4961 51.5305 10.3828 51.5305 8.78906C51.5305 7.23047 52.8078 6.10547 54.4484 6.10547ZM54.4484 7.40625C53.6164 7.39453 52.9836 7.92188 52.9953 8.78906C52.9836 9.67969 53.6164 10.1953 54.4484 10.1953C55.257 10.1953 55.8898 9.67969 55.8898 8.78906C55.8898 7.92188 55.257 7.39453 54.4484 7.40625ZM70.1928 10.9219V12.1055H62.6459V6.19922H70.1108V7.40625H64.1694V8.53125H69.8647V9.70312H64.1694V10.9219H70.1928ZM71.2592 13.6172V14.8359H61.4975V13.6172H71.2592ZM74.0544 6.51562L73.902 12.457H72.402L72.2497 6.51562H74.0544ZM73.1637 15.1055C72.613 15.1055 72.1677 14.6602 72.1794 14.1211C72.1677 13.582 72.613 13.1484 73.1637 13.1484C73.6794 13.1484 74.1364 13.582 74.1364 14.1211C74.1364 14.6602 73.6794 15.1055 73.1637 15.1055Z" fill="white"/>
<path d="M53 30C57.7971 26.5928 58.4633 21.9238 57.7971 19.4C61.6614 18.2642 69.3101 16.75 68.9903 19.7785C68.5905 23.5643 65.7922 27.7286 53 30Z" fill="#212223"/>
</svg>
