<svg width="91" height="115" viewBox="0 0 91 115" fill="none" xmlns="http://www.w3.org/2000/svg">
<path fill-rule="evenodd" clip-rule="evenodd" d="M66.8881 46.7736C66.8881 50.7639 63.6533 53.9987 59.663 53.9987C55.6728 53.9987 52.438 50.7639 52.438 46.7736C52.438 42.7834 55.6728 39.5486 59.663 39.5486C63.6533 39.5486 66.8881 42.7834 66.8881 46.7736ZM38.2186 43.8466H46.3617L45.1643 57.2588C41.891 54.3049 35.2488 47.9661 34.8656 46.2416C34.4824 44.5172 36.9413 43.9264 38.2186 43.8466Z" fill="white"/>
<g filter="url(#filter0_i_8_373)">
<path d="M84.1543 37.2478C71.0936 9.17706 50.934 4.43362 42.4868 5.57075C7.88612 11.4184 -3.32272 57.7156 0.819518 75.9908C6.09174 114.734 44.9235 118.146 63.6861 111.323C82.4486 104.5 100.48 72.3362 84.1543 37.2478Z" fill="#FBE200"/>
</g>
<ellipse cx="65.368" cy="27.5452" rx="10.7215" ry="26.7088" transform="rotate(-40.1058 65.368 27.5452)" fill="#FFCF0B"/>
<ellipse cx="39.8999" cy="75.3926" rx="19.4732" ry="24.285" transform="rotate(51.5812 39.8999 75.3926)" fill="#FFCF0B"/>
<ellipse cx="3.97915" cy="66.7303" rx="2.9112" ry="5.33121" transform="rotate(1.00781 3.97915 66.7303)" fill="#FFCF0B"/>
<g filter="url(#filter1_f_8_373)">
<ellipse cx="26.9412" cy="42.4247" rx="12.6708" ry="19.77" transform="rotate(18.0357 26.9412 42.4247)" fill="white" fill-opacity="0.6"/>
</g>
<defs>
<filter id="filter0_i_8_373" x="-10.1994" y="-0.190741" width="100.727" height="114.321" filterUnits="userSpaceOnUse" color-interpolation-filters="sRGB">
<feFlood flood-opacity="0" result="BackgroundImageFix"/>
<feBlend mode="normal" in="SourceGraphic" in2="BackgroundImageFix" result="shape"/>
<feColorMatrix in="SourceAlpha" type="matrix" values="0 0 0 0 0 0 0 0 0 0 0 0 0 0 0 0 0 0 127 0" result="hardAlpha"/>
<feOffset dx="-10.1994" dy="-5.60969"/>
<feGaussianBlur stdDeviation="8.66952"/>
<feComposite in2="hardAlpha" operator="arithmetic" k2="-1" k3="1"/>
<feColorMatrix type="matrix" values="0 0 0 0 0.956827 0 0 0 0 0.471537 0 0 0 0 0.0235766 0 0 0 0.32 0"/>
<feBlend mode="normal" in2="shape" result="effect1_innerShadow_8_373"/>
</filter>
<filter id="filter1_f_8_373" x="1.18512" y="10.978" width="51.5123" height="62.8934" filterUnits="userSpaceOnUse" color-interpolation-filters="sRGB">
<feFlood flood-opacity="0" result="BackgroundImageFix"/>
<feBlend mode="normal" in="SourceGraphic" in2="BackgroundImageFix" result="shape"/>
<feGaussianBlur stdDeviation="6.11966" result="effect1_foregroundBlur_8_373"/>
</filter>
</defs>
</svg>
