<svg width="239" height="290" viewBox="0 0 239 290" fill="none" xmlns="http://www.w3.org/2000/svg">
<path d="M119.094 9.71606C119.162 10.4203 119.275 10.9446 119.434 11.2888C119.593 11.6331 119.877 11.8053 120.287 11.8055C120.363 11.8055 120.432 11.7928 120.501 11.7799C120.57 11.7928 120.638 11.8055 120.714 11.8055C121.123 11.8053 121.407 11.6331 121.566 11.2888C121.725 10.9446 121.838 10.4203 121.906 9.71606L122.27 4.2795C122.338 3.21975 122.372 2.45916 122.372 1.99772C122.372 1.36922 122.208 0.879281 121.879 0.527906C121.549 0.176156 121.115 0.0001875 120.578 0C120.55 0 120.529 0.00646874 120.501 0.00759374C120.474 0.00646874 120.452 0 120.424 0C119.887 0 119.453 0.175969 119.124 0.527906C118.795 0.879469 118.63 1.3695 118.63 1.998C118.63 2.45944 118.664 3.22003 118.732 4.27978L119.096 9.71606M120.512 13.7908C119.992 13.7912 119.548 13.9556 119.18 14.2841C118.812 14.6141 118.628 15.0133 118.628 15.4817C118.628 16.0123 118.814 16.4285 119.186 16.7302C119.558 17.0328 119.992 17.1852 120.486 17.1852C120.991 17.1848 121.431 17.0353 121.807 16.7366C122.183 16.4377 122.369 16.0194 122.369 15.4814C122.369 15.013 122.189 14.6138 121.83 14.2838C121.471 13.9559 121.031 13.7908 120.511 13.7908" fill="#BE212F"/>
<g filter="url(#filter0_i_840_386)">
<path d="M123.716 31.8469L119.354 31.8469L119.996 39.0313C121.749 37.449 125.307 34.0535 125.512 33.1298C125.718 32.2061 124.401 31.8896 123.716 31.8469Z" fill="#3A1E00"/>
<g filter="url(#filter1_i_840_386)">
<path d="M120.145 39.2871L142.084 61.2254L142.469 61.6102L139.133 65.3308C120.556 84.3183 102.697 72.5152 96.1544 64.6893C81.7854 45.0603 96.7958 26.9708 102.056 24.6616C104.365 23.3786 112.191 21.4543 117.323 26.3294C122.058 30.8281 121.129 36.8923 120.145 39.2871Z" fill="#A94700"/>
</g>
<mask id="mask0_840_386" style="mask-type:alpha" maskUnits="userSpaceOnUse" x="89" y="23" width="54" height="53">
<path d="M120.039 39.2871L141.977 61.2254L142.362 61.6102L139.026 65.3308C120.449 84.3183 102.591 72.5152 96.0477 64.6893C81.6787 45.0603 96.6891 26.9708 101.949 24.6616C104.258 23.3786 112.084 21.4543 117.216 26.3294C121.952 30.8281 121.022 36.8923 120.039 39.2871Z" fill="#AA571B"/>
</mask>
<g mask="url(#mask0_840_386)">
<g filter="url(#filter2_f_840_386)">
<circle cx="15.2044" cy="15.2044" r="15.2044" transform="matrix(-1 -8.74228e-08 -8.74228e-08 1 146.509 35.3493)" fill="#F9E8D8"/>
</g>
</g>
<g filter="url(#filter3_i_840_386)">
<path d="M148.518 45.5442C143.6 34.9726 136.007 33.1862 132.826 33.6144C119.795 35.8167 115.574 53.2526 117.134 60.1351C119.119 74.7262 133.744 76.011 140.81 73.4415C147.876 70.872 154.667 58.7588 148.518 45.5442Z" fill="#FBE200"/>
</g>
<ellipse cx="141.443" cy="41.8903" rx="4.03778" ry="10.0587" transform="rotate(-40.1058 141.443 41.8903)" fill="#FFCF0B"/>
<ellipse cx="131.852" cy="59.91" rx="7.33376" ry="9.14593" transform="rotate(51.5812 131.852 59.91)" fill="#FFCF0B"/>
<ellipse cx="118.324" cy="56.6478" rx="1.09638" ry="2.00777" transform="rotate(1.00781 118.324 56.6478)" fill="#FFCF0B"/>
<g filter="url(#filter4_f_840_386)">
<ellipse cx="126.972" cy="47.494" rx="4.77193" ry="7.44552" transform="rotate(18.0357 126.972 47.494)" fill="white" fill-opacity="0.6"/>
</g>
<ellipse cx="3.87022" cy="3.87022" rx="3.87022" ry="3.87022" transform="matrix(-1 -8.74228e-08 -8.74228e-08 1 116.099 29.5442)" fill="white"/>
<circle cx="2.488" cy="2.488" r="2.488" transform="matrix(-1 -8.74228e-08 -8.74228e-08 1 114.717 30.9266)" fill="black"/>
<ellipse cx="0.829333" cy="0.829334" rx="0.829333" ry="0.829334" transform="matrix(-1 -8.74228e-08 -8.74228e-08 1 113.888 31.7559)" fill="white"/>
<ellipse cx="0.414667" cy="0.414667" rx="0.414667" ry="0.414667" transform="matrix(-1 -8.74228e-08 -8.74228e-08 1 112.229 33.4142)" fill="white" fill-opacity="0.3"/>
<g filter="url(#filter5_ii_840_386)">
<path d="M100.882 42.9716C94.1683 46.0817 91.5137 52.1686 92.4663 56.3498C98.6428 83.4609 126.529 78.142 139.804 72.0556C139.855 72.0321 139.867 71.9685 139.828 71.9283C134.96 66.9628 124.902 56.5972 122.984 54.2146C120.574 51.2202 109.274 39.0839 100.882 42.9716Z" fill="#A94700"/>
</g>
</g>
<path d="M66.9403 105.516H75.4757V111.747H79.3166V118.917H75.4757V126.215H66.9403V105.516ZM39.4989 119.642C41.8035 119.472 43.6813 118.988 45.1323 118.191C46.5833 117.366 47.3088 116.257 47.3088 114.863V113.412H40.2671V107.266H47.3088V104.449H55.8442V107.266H62.8859V113.412H55.8442V113.838C55.8442 114.18 55.8158 114.72 55.7589 115.46C56.4133 116.456 57.7078 117.366 59.6425 118.191C61.6056 119.016 63.6257 119.557 65.7026 119.813L62.4592 126.3C58.4191 125.503 55.1898 124.052 52.7715 121.947C51.3774 123.512 49.5422 124.778 47.2661 125.745C45.0185 126.684 42.4294 127.21 39.4989 127.324V119.642ZM42.6143 127.922H75.4757V141.408C73.7686 142.034 71.4498 142.517 68.5193 142.859C65.5888 143.2 62.3738 143.371 58.8743 143.371C55.4317 143.371 52.2878 143.186 49.4427 142.816C46.5975 142.475 44.3214 142.005 42.6143 141.408V127.922ZM51.1497 136.244C51.4627 136.386 52.3874 136.528 53.9238 136.671C55.4886 136.813 57.1388 136.884 58.8743 136.884C60.6383 136.884 62.3311 136.813 63.9529 136.671C65.6031 136.528 66.5989 136.386 66.9403 136.244V134.195H51.1497V136.244ZM109.617 125.745H107.014V142.773H100.186V105.687H107.014V118.575H109.617V105.516H117.299V142.944H109.617V125.745ZM80.4689 133.512C82.2329 133.427 83.627 132.374 84.6513 130.354C85.6755 128.306 86.1876 124.863 86.1876 120.026V106.028H93.8695V119.002C93.8695 120.226 93.8268 121.421 93.7415 122.587C94.1682 125.802 94.9507 128.363 96.0887 130.269C97.2268 132.175 98.5355 133.299 100.015 133.64L98.3079 141.621C96.6008 141.422 95.1071 140.739 93.8268 139.573C92.575 138.435 91.4938 136.77 90.5834 134.579C89.4453 136.713 88.0085 138.392 86.273 139.615C84.5659 140.867 82.6312 141.593 80.4689 141.792V133.512ZM131.809 134.153C132.578 134.437 133.36 134.579 134.157 134.579C134.953 134.579 135.736 134.437 136.504 134.153V113.412H131.809V134.153ZM123.274 106.37H144.613V139.786C140.999 141.009 137.443 141.621 133.943 141.621C130.444 141.621 126.887 141.009 123.274 139.786V106.37ZM148.88 105.516H157.416V118.575H161.257V125.745H157.416V142.944H148.88V105.516ZM163.39 135.902H200.52V143.157H163.39V135.902ZM164.671 119.557C164.671 118.647 164.77 117.637 164.97 116.527C165.197 115.389 165.453 114.422 165.738 113.625H164.671V106.37H198.812V113.625H173.846C173.676 114.222 173.519 114.934 173.377 115.759H198.386V121.52H173.932C174.529 122.573 175.596 123.313 177.132 123.739C178.697 124.166 181.002 124.38 184.046 124.38C189.054 124.38 193.976 123.981 198.812 123.185V129.757C196.65 130.155 194.203 130.468 191.472 130.696C188.741 130.895 185.981 130.994 183.193 130.994C176.592 130.994 171.855 130.056 168.981 128.178C166.108 126.272 164.671 123.398 164.671 119.557Z" fill="#3E1A00"/>
<path d="M8.18257 169.895C12.6118 169.869 15.8214 173.015 15.8214 177.547C15.8214 182.04 12.6118 185.211 8.18257 185.211C3.74049 185.211 0.582242 182.04 0.595081 177.547C0.582242 173.015 3.74049 169.869 8.18257 169.895ZM4.72904 177.547C4.71621 179.999 6.14127 181.398 8.18257 181.398C10.1854 181.398 11.6104 179.999 11.6233 177.547C11.6104 175.018 10.1854 173.618 8.18257 173.618C6.14127 173.618 4.71621 175.018 4.72904 177.547ZM6.25681 200.759V187.381H10.8401V190.398H24.2562V187.381H28.8396V200.759H6.25681ZM10.8401 197.048H24.2562V194.057H10.8401V197.048ZM17.3749 185.828V168.688H21.6757V174.979H24.4488V168.111H28.8396V186.059H24.4488V178.754H21.6757V185.828H17.3749ZM50.3609 169.484C54.5848 169.459 57.9613 171.885 58.8728 175.428H64.3805V168.059H69.0023V185.84H64.3805V179.113H58.8856C58.0254 182.746 54.6233 185.211 50.3609 185.211C45.2769 185.211 41.5409 181.912 41.5666 177.303C41.5409 172.771 45.2769 169.459 50.3609 169.484ZM45.9574 177.303C45.9574 179.768 47.7804 181.334 50.3609 181.334C52.8773 181.334 54.6746 179.768 54.7003 177.303C54.6746 174.838 52.8773 173.323 50.3609 173.336C47.7804 173.323 45.9574 174.838 45.9574 177.303ZM46.9587 200.759V187.291H51.5164V190.475H64.3805V187.291H69.0023V200.759H46.9587ZM51.5164 197.01H64.3805V194.031H51.5164V197.01ZM101.919 168.059V201.131H97.4636V168.059H101.919ZM74.2903 193.749V171.808H86.9361V175.531H78.8222V189.91C82.3528 189.885 85.036 189.692 88.1301 189.05L88.4767 192.85C84.7536 193.595 81.4284 193.749 76.5755 193.749H74.2903ZM84.6637 183.928V180.14H90.6079V168.65H94.9216V199.616H90.6079V183.928H84.6637ZM133.076 168.059V201.208H128.39V168.059H133.076ZM106.385 182.156C106.372 174.966 110.07 170.396 115.128 170.396C120.122 170.396 123.819 174.966 123.832 182.156C123.819 189.422 120.122 193.967 115.128 193.967C110.07 193.967 106.372 189.422 106.385 182.156ZM110.865 182.156C110.84 187.099 112.56 189.769 115.128 189.769C117.644 189.769 119.352 187.099 119.352 182.156C119.352 177.264 117.644 174.581 115.128 174.581C112.56 174.581 110.84 177.264 110.865 182.156ZM164.49 185.147V188.793H141.124V170.511H164.233V174.26H145.823V177.752H163.45V181.386H145.823V185.147H164.49ZM137.555 197.279V193.505H167.777V197.279H137.555ZM204.473 168.085V177.573H208.915V181.386H204.473V192.157H199.826V168.085H204.473ZM178.488 178.6C178.462 173.695 182.468 170.203 187.539 170.203C192.598 170.203 196.539 173.695 196.565 178.6C196.539 183.452 192.598 186.996 187.539 186.996C182.468 186.996 178.462 183.452 178.488 178.6ZM183.02 178.6C182.994 181.296 185.023 182.952 187.539 182.952C190.081 182.952 192.033 181.296 192.045 178.6C192.033 175.852 190.081 174.235 187.539 174.235C185.023 174.235 182.994 175.852 183.02 178.6ZM183.033 200.553V189.615H187.655V196.817H205.654V200.553H183.033ZM238.879 168.059V201.131H234.424V184.595H231.33V199.513H226.99V168.637H231.33V180.846H234.424V168.059H238.879ZM211.713 193.056V171.731H216.36V189.012C219.018 188.934 221.932 188.703 225.116 188.087L225.578 192.08C221.174 192.85 217.387 193.068 213.959 193.056H211.713Z" fill="#3A1E00"/>
<path d="M37.2127 248.219V252.763H39.4551V253.878H37.2127V259.229H35.8957V248.219H37.2127ZM25.8345 252.953C25.8226 250.793 27.5193 249.287 29.7498 249.287C31.9804 249.287 33.6533 250.793 33.6652 252.953C33.6533 255.112 31.9804 256.631 29.7498 256.631C27.5193 256.631 25.8226 255.112 25.8345 252.953ZM27.1277 252.953C27.1159 254.424 28.2667 255.468 29.7498 255.468C31.2448 255.468 32.3719 254.424 32.3838 252.953C32.3719 251.482 31.2448 250.438 29.7498 250.438C28.2667 250.438 27.1159 251.482 27.1277 252.953ZM27.8752 262.812V258.09H29.1803V261.721H37.9008V262.812H27.8752ZM52.7606 248.231V257.117H51.4437V253.214H48.43V252.122H51.4437V248.231H52.7606ZM40.457 255.931C42.6757 255.124 44.2537 253.107 44.2537 250.971V250.414H40.8841V249.322H48.9165V250.414H45.5825V250.96C45.5825 252.905 47.0775 254.756 49.2606 255.504L48.5724 256.56C46.8936 255.955 45.5944 254.703 44.9478 253.166C44.3071 254.911 42.9249 256.305 41.1452 256.975L40.457 255.931ZM42.8181 260.356C42.8062 258.6 44.7046 257.58 47.8131 257.58C50.9098 257.58 52.8081 258.6 52.8081 260.356C52.8081 262.112 50.9098 263.121 47.8131 263.133C44.7046 263.121 42.8062 262.112 42.8181 260.356ZM44.1232 260.356C44.1113 261.436 45.5232 262.089 47.8131 262.077C50.0911 262.089 51.503 261.436 51.503 260.356C51.503 259.265 50.0911 258.612 47.8131 258.612C45.5232 258.612 44.1113 259.265 44.1232 260.356ZM60.4305 250.983C60.4305 252.917 61.9254 254.768 64.1085 255.527L63.4204 256.56C61.7356 255.961 60.4364 254.715 59.7898 253.178C59.1491 254.893 57.7669 256.263 55.9931 256.916L55.305 255.872C57.5118 255.088 59.1016 253.095 59.1016 250.995V250.343H55.7321V249.263H63.7645V250.343H60.4305V250.983ZM57.5711 259.039V257.96H67.6086V263.145H66.2916V259.039H57.5711ZM63.2899 253.238V252.134H66.2916V248.231H67.6086V257.165H66.2916V253.238H63.2899ZM82.4091 248.243V259.146H81.0921V248.243H82.4091ZM70.4377 252.941C70.4377 250.793 72.1224 249.287 74.353 249.287C76.5835 249.287 78.2565 250.793 78.2565 252.941C78.2565 255.112 76.5835 256.619 74.353 256.607C72.1224 256.619 70.4377 255.112 70.4377 252.941ZM71.7309 252.941C71.719 254.424 72.8462 255.456 74.353 255.456C75.8361 255.456 76.9751 254.424 76.9751 252.941C76.9751 251.482 75.8361 250.438 74.353 250.438C72.8462 250.438 71.719 251.482 71.7309 252.941ZM72.775 262.812V258.031H74.092V261.721H82.8718V262.812H72.775ZM94.4975 252.241C94.4975 254.934 96.2297 257.651 98.401 258.648L97.606 259.716C95.9094 258.844 94.5093 257.058 93.8449 254.94C93.1864 257.171 91.7864 259.081 90.0838 259.989L89.2414 258.933C91.4245 257.853 93.1568 254.982 93.1686 252.241V249.524H94.4975V252.241ZM96.7755 254.4V253.321H100.311V248.231H101.616V263.168H100.311V254.4H96.7755ZM116.393 248.231V263.168H115.076V248.231H116.393ZM104.967 259.561V249.5H106.284V253.439H110.722V249.5H112.027V259.561H104.967ZM106.284 258.458H110.722V254.495H106.284V258.458ZM126.388 250.426C126.388 252.977 129.307 255.255 131.905 255.741L131.288 256.844C129.04 256.322 126.673 254.727 125.706 252.532C124.739 254.715 122.378 256.316 120.124 256.844L119.519 255.741C122.105 255.243 125 252.988 125.012 250.426V249.275H126.388V250.426ZM118.949 261.116V260.012H132.605V261.116H118.949ZM143.116 252.241C143.104 254.863 144.848 257.568 146.972 258.612L146.153 259.668C144.516 258.808 143.145 257.04 142.481 254.97C141.817 257.171 140.405 259.051 138.726 259.953L137.895 258.897C140.067 257.817 141.799 254.958 141.811 252.241V249.524H143.116V252.241ZM148.336 263.145V248.231H149.653V254.282H152.145V255.421H149.653V263.145H148.336ZM166.554 255.611V256.69H152.957V255.611H156.326V253.505C155.134 253.042 154.464 252.283 154.464 251.28C154.464 249.524 156.481 248.515 159.743 248.515C162.994 248.515 165.011 249.524 165.011 251.28C165.011 252.277 164.347 253.036 163.172 253.493V255.611H166.554ZM154.594 260.463C154.594 258.767 156.516 257.829 159.743 257.841C162.947 257.829 164.869 258.767 164.881 260.463C164.869 262.172 162.947 263.109 159.743 263.109C156.516 263.109 154.594 262.172 154.594 260.463ZM155.828 251.28C155.816 252.371 157.311 253 159.743 253C162.164 253 163.671 252.371 163.671 251.28C163.671 250.2 162.164 249.548 159.743 249.548C157.311 249.548 155.816 250.2 155.828 251.28ZM155.935 260.463C155.923 261.484 157.359 262.089 159.743 262.077C162.116 262.089 163.552 261.484 163.564 260.463C163.552 259.455 162.116 258.861 159.743 258.85C157.359 258.861 155.923 259.455 155.935 260.463ZM157.643 255.611H161.867V253.849C161.238 253.961 160.527 254.021 159.743 254.021C158.972 254.021 158.266 253.967 157.643 253.855V255.611ZM174.591 248.492C177.914 248.492 179.859 249.405 179.859 251.066C179.859 252.751 177.914 253.665 174.591 253.677C171.269 253.665 169.312 252.751 169.312 251.066C169.312 249.405 171.269 248.492 174.591 248.492ZM167.805 255.753V254.685H181.402V255.753H167.805ZM169.454 258.055V257.046H179.646V260.38H170.783V261.934H180.097V262.978H169.49V259.407H178.353V258.055H169.454ZM170.688 251.066C170.676 252.099 172.124 252.668 174.591 252.668C177.071 252.668 178.519 252.099 178.519 251.066C178.519 250.082 177.071 249.488 174.591 249.488C172.124 249.488 170.676 250.082 170.688 251.066ZM191.877 248.954C194.107 248.943 195.709 250.177 195.709 252.004C195.709 253.819 194.107 255.065 191.877 255.053C189.646 255.065 188.056 253.819 188.056 252.004C188.056 250.177 189.646 248.943 191.877 248.954ZM186.929 256.334C189.729 256.334 193.561 256.275 196.872 255.789L196.966 256.785C195.543 257.046 194.06 257.2 192.624 257.295V262.682H191.307V257.367C189.788 257.432 188.353 257.444 187.107 257.45L186.929 256.334ZM189.337 252.004C189.326 253.166 190.393 253.973 191.877 253.961C193.383 253.973 194.451 253.166 194.451 252.004C194.451 250.841 193.383 250.022 191.877 250.034C190.393 250.022 189.326 250.841 189.337 252.004ZM197.975 263.156V248.243H199.268V263.156H197.975ZM209.264 250.805V251.885H201.777V250.805H204.874V248.682H206.191V250.805H209.264ZM202.323 256.275C202.311 254.294 203.663 252.894 205.526 252.894C207.401 252.894 208.741 254.294 208.753 256.275C208.741 258.28 207.401 259.692 205.526 259.692C203.663 259.692 202.311 258.28 202.323 256.275ZM203.485 256.275C203.485 257.604 204.34 258.553 205.526 258.541C206.713 258.553 207.579 257.604 207.579 256.275C207.579 254.97 206.713 254.009 205.526 253.997C204.34 254.009 203.485 254.97 203.485 256.275ZM210.035 262.409V248.587H211.28V254.519H213.262V248.231H214.52V263.145H213.262V255.611H211.28V262.409H210.035ZM16.3361 279.085V281.838C17.7717 281.767 19.237 281.642 20.6073 281.434L20.7141 282.419C17.2971 283.036 13.6309 283.06 10.9376 283.06L10.7597 281.956C12.0055 281.95 13.4826 281.945 15.0309 281.891V279.085H16.3361ZM11.2105 278.575C13.4174 277.916 14.9716 276.291 15.0072 274.28H11.5783V273.188H15.0309V271.338H16.3361V273.188H19.8361V274.28H16.3361C16.3776 276.208 17.9674 277.774 20.1683 278.397L19.5514 279.441C17.7598 278.901 16.3539 277.756 15.6835 276.244C15.0369 277.839 13.6428 279.038 11.8512 279.583L11.2105 278.575ZM21.5921 286.168V271.231H22.9091V286.168H21.5921ZM37.8401 271.243V282.182H36.5231V271.243H37.8401ZM25.6788 278.99C27.9331 278.112 29.4636 275.929 29.4636 273.568V272.073H30.8043V273.568C30.7925 275.846 32.3467 277.887 34.5654 278.694L33.8773 279.75C32.151 279.079 30.8043 277.738 30.1458 276.018C29.4992 277.851 28.1467 279.316 26.4026 280.022L25.6788 278.99ZM28.206 285.812V281.173H29.523V284.721H38.3028V285.812H28.206ZM52.7355 271.231V286.168H51.4304V277.875H47.8472V282.395H40.9776V272.393H42.3065V276.285H46.5659V272.393H47.8472V276.783H51.4304V271.231H52.7355ZM42.3065 281.304H46.5659V277.341H42.3065V281.304ZM67.5834 271.243V282.182H66.2664V276.451H63.1935V275.371H66.2664V271.243H67.5834ZM55.2798 279.192C57.4866 278.421 59.0765 276.451 59.0765 274.316V273.544H55.7069V272.453H63.7393V273.544H60.4053V274.316C60.4053 276.238 61.9003 278.112 64.0834 278.86L63.3952 279.916C61.7104 279.311 60.4112 278.059 59.7646 276.516C59.118 278.237 57.7417 279.607 55.9679 280.272L55.2798 279.192ZM58.0087 285.812V281.197H59.3256V284.721H67.9987V285.812H58.0087ZM76.855 272.192C79.9754 272.204 82.3127 273.829 82.3127 276.297C82.3127 278.777 79.9754 280.402 76.855 280.39C73.7465 280.402 71.4091 278.777 71.4091 276.297C71.4091 273.829 73.7465 272.204 76.855 272.192ZM70.0684 284.151V283.048H83.7246V284.151H70.0684ZM72.6668 276.297C72.6549 278.1 74.4583 279.311 76.855 279.311C79.2517 279.311 81.0432 278.1 81.0432 276.297C81.0432 274.505 79.2517 273.26 76.855 273.271C74.4583 273.26 72.6549 274.505 72.6668 276.297ZM98.5726 283.178V284.294H84.9164V283.178H91.0504V280.367H86.6249V275.763H95.5471V273.426H86.5893V272.334H96.8522V276.843H87.93V279.275H97.1963V280.367H92.3555V283.178H98.5726ZM108.181 271.931C110.186 271.919 111.705 273.082 111.99 274.802H115.122V271.231H116.439V279.227H115.122V275.894H111.996C111.735 277.65 110.204 278.824 108.181 278.824C105.915 278.824 104.302 277.412 104.313 275.371C104.302 273.343 105.915 271.919 108.181 271.931ZM105.571 275.371C105.571 276.724 106.651 277.709 108.181 277.709C109.688 277.709 110.768 276.724 110.768 275.371C110.768 273.995 109.688 273.034 108.181 273.046C106.651 273.034 105.571 273.995 105.571 275.371ZM106.829 285.943V279.987H108.146V281.873H115.122V279.987H116.439V285.943H106.829ZM108.146 284.863H115.122V282.929H108.146V284.863ZM131.69 271.231V286.145H130.409V271.231H131.69ZM119.505 282.55V273.07H125.129V274.161H120.787V281.434C122.94 281.428 124.299 281.345 125.9 280.995L126.031 282.111C124.311 282.467 122.851 282.538 120.455 282.55H119.505ZM124.121 278.029V276.926H127.384V271.587H128.641V285.362H127.384V278.029H124.121ZM146.064 271.231V286.168H144.747V271.231H146.064ZM134.33 277.578C134.33 274.41 135.908 272.393 138.138 272.382C140.345 272.393 141.947 274.41 141.947 277.578C141.947 280.758 140.345 282.775 138.138 282.775C135.908 282.775 134.33 280.758 134.33 277.578ZM135.599 277.578C135.599 280.011 136.643 281.6 138.138 281.6C139.633 281.6 140.665 280.011 140.665 277.578C140.665 275.158 139.633 273.568 138.138 273.556C136.643 273.568 135.599 275.158 135.599 277.578ZM160.698 279.287V280.367H150.388V272.524H160.532V273.616H151.717V275.834H160.212V276.902H151.717V279.287H160.698ZM148.62 284.199V283.095H162.276V284.199H148.62ZM175.231 273.805V274.885H167.744V273.805H170.841V271.682H172.158V273.805H175.231ZM168.29 279.275C168.278 277.294 169.631 275.894 171.493 275.894C173.368 275.894 174.709 277.294 174.72 279.275C174.709 281.28 173.368 282.692 171.493 282.692C169.631 282.692 168.278 281.28 168.29 279.275ZM169.453 279.275C169.453 280.604 170.307 281.553 171.493 281.541C172.68 281.553 173.546 280.604 173.546 279.275C173.546 277.97 172.68 277.009 171.493 276.997C170.307 277.009 169.453 277.97 169.453 279.275ZM176.002 285.409V271.587H177.248V277.519H179.229V271.231H180.487V286.145H179.229V278.611H177.248V285.409H176.002ZM190.162 273.331C190.15 275.336 192.807 277.033 195.418 277.412L194.919 278.456C192.594 278.059 190.328 276.819 189.42 275.027C188.512 276.819 186.24 278.059 183.945 278.456L183.434 277.412C186.021 277.033 188.679 275.336 188.69 273.331V273.236H183.909V272.168H194.919V273.236H190.162V273.331ZM182.628 280.817V279.726H196.224V280.817H190.043V286.133H188.75V280.817H182.628ZM201.901 275.466C201.901 277.839 203.064 280.402 205.045 281.577L204.286 282.597C202.844 281.731 201.818 280.135 201.29 278.326C200.744 280.301 199.641 282.01 198.152 282.917L197.309 281.933C199.374 280.722 200.632 278.077 200.632 275.526V272.631H201.901V275.466ZM203.396 277.697V276.582H205.923V271.551H207.169V285.385H205.923V277.697H203.396ZM208.984 286.145V271.231H210.254V286.145H208.984ZM225.98 283.119V284.223H212.324V283.119H215.705V279.097C214.435 278.433 213.664 277.359 213.664 276.012C213.664 273.699 215.93 272.18 219.11 272.168C222.302 272.18 224.568 273.699 224.568 276.012C224.568 277.341 223.82 278.397 222.586 279.061V283.119H225.98ZM214.934 276.012C214.934 277.673 216.666 278.789 219.11 278.789C221.542 278.789 223.298 277.673 223.298 276.012C223.298 274.339 221.542 273.236 219.11 273.248C216.666 273.236 214.934 274.339 214.934 276.012ZM216.998 283.119H221.258V279.578C220.611 279.744 219.887 279.833 219.11 279.833C218.345 279.833 217.639 279.744 216.998 279.583V283.119ZM228.749 284.875C228.156 284.875 227.658 284.389 227.67 283.795C227.658 283.202 228.156 282.716 228.749 282.716C229.343 282.716 229.829 283.202 229.829 283.795C229.829 284.389 229.343 284.875 228.749 284.875Z" fill="#1B1B1B"/>
<defs>
<filter id="filter0_i_840_386" x="90.0952" y="23.1852" width="60.8235" height="54.048" filterUnits="userSpaceOnUse" color-interpolation-filters="sRGB">
<feFlood flood-opacity="0" result="BackgroundImageFix"/>
<feBlend mode="normal" in="SourceGraphic" in2="BackgroundImageFix" result="shape"/>
<feColorMatrix in="SourceAlpha" type="matrix" values="0 0 0 0 0 0 0 0 0 0 0 0 0 0 0 0 0 0 127 0" result="hardAlpha"/>
<feOffset dy="0.259586"/>
<feGaussianBlur stdDeviation="1.75221"/>
<feComposite in2="hardAlpha" operator="arithmetic" k2="-1" k3="1"/>
<feColorMatrix type="matrix" values="0 0 0 0 1 0 0 0 0 1 0 0 0 0 1 0 0 0 0.85 0"/>
<feBlend mode="normal" in2="shape" result="effect1_innerShadow_840_386"/>
</filter>
<filter id="filter1_i_840_386" x="90.0952" y="23.1852" width="52.3733" height="52.452" filterUnits="userSpaceOnUse" color-interpolation-filters="sRGB">
<feFlood flood-opacity="0" result="BackgroundImageFix"/>
<feBlend mode="normal" in="SourceGraphic" in2="BackgroundImageFix" result="shape"/>
<feColorMatrix in="SourceAlpha" type="matrix" values="0 0 0 0 0 0 0 0 0 0 0 0 0 0 0 0 0 0 127 0" result="hardAlpha"/>
<feOffset dy="0.0755102"/>
<feGaussianBlur stdDeviation="0.113265"/>
<feComposite in2="hardAlpha" operator="arithmetic" k2="-1" k3="1"/>
<feColorMatrix type="matrix" values="0 0 0 0 1 0 0 0 0 1 0 0 0 0 1 0 0 0 0.95 0"/>
<feBlend mode="normal" in2="shape" result="effect1_innerShadow_840_386"/>
</filter>
<filter id="filter2_f_840_386" x="115.815" y="35.0646" width="30.9784" height="30.9784" filterUnits="userSpaceOnUse" color-interpolation-filters="sRGB">
<feFlood flood-opacity="0" result="BackgroundImageFix"/>
<feBlend mode="normal" in="SourceGraphic" in2="BackgroundImageFix" result="shape"/>
<feGaussianBlur stdDeviation="0.142369" result="effect1_foregroundBlur_840_386"/>
</filter>
<filter id="filter3_i_840_386" x="116.163" y="33.1932" width="34.7554" height="41.3053" filterUnits="userSpaceOnUse" color-interpolation-filters="sRGB">
<feFlood flood-opacity="0" result="BackgroundImageFix"/>
<feBlend mode="normal" in="SourceGraphic" in2="BackgroundImageFix" result="shape"/>
<feColorMatrix in="SourceAlpha" type="matrix" values="0 0 0 0 0 0 0 0 0 0 0 0 0 0 0 0 0 0 127 0" result="hardAlpha"/>
<feOffset dx="-0.661908" dy="-0.364049"/>
<feGaussianBlur stdDeviation="0.562622"/>
<feComposite in2="hardAlpha" operator="arithmetic" k2="-1" k3="1"/>
<feColorMatrix type="matrix" values="0 0 0 0 0.956827 0 0 0 0 0.471537 0 0 0 0 0.0235766 0 0 0 0.32 0"/>
<feBlend mode="normal" in2="shape" result="effect1_innerShadow_840_386"/>
</filter>
<filter id="filter4_f_840_386" x="121.087" y="39.4661" width="11.7697" height="16.0559" filterUnits="userSpaceOnUse" color-interpolation-filters="sRGB">
<feFlood flood-opacity="0" result="BackgroundImageFix"/>
<feBlend mode="normal" in="SourceGraphic" in2="BackgroundImageFix" result="shape"/>
<feGaussianBlur stdDeviation="0.397145" result="effect1_foregroundBlur_840_386"/>
</filter>
<filter id="filter5_ii_840_386" x="92.2786" y="41.8511" width="47.9329" height="35.1981" filterUnits="userSpaceOnUse" color-interpolation-filters="sRGB">
<feFlood flood-opacity="0" result="BackgroundImageFix"/>
<feBlend mode="normal" in="SourceGraphic" in2="BackgroundImageFix" result="shape"/>
<feColorMatrix in="SourceAlpha" type="matrix" values="0 0 0 0 0 0 0 0 0 0 0 0 0 0 0 0 0 0 127 0" result="hardAlpha"/>
<feOffset dy="0.0755102"/>
<feGaussianBlur stdDeviation="0.490816"/>
<feComposite in2="hardAlpha" operator="arithmetic" k2="-1" k3="1"/>
<feColorMatrix type="matrix" values="0 0 0 0 1 0 0 0 0 1 0 0 0 0 1 0 0 0 0.45 0"/>
<feBlend mode="normal" in2="shape" result="effect1_innerShadow_840_386"/>
<feColorMatrix in="SourceAlpha" type="matrix" values="0 0 0 0 0 0 0 0 0 0 0 0 0 0 0 0 0 0 127 0" result="hardAlpha"/>
<feOffset dx="0.762724" dy="-0.762724"/>
<feGaussianBlur stdDeviation="0.180088"/>
<feComposite in2="hardAlpha" operator="arithmetic" k2="-1" k3="1"/>
<feColorMatrix type="matrix" values="0 0 0 0 0.972549 0 0 0 0 0.901961 0 0 0 0 0.811765 0 0 0 0.4 0"/>
<feBlend mode="normal" in2="effect1_innerShadow_840_386" result="effect2_innerShadow_840_386"/>
</filter>
</defs>
</svg>
