<svg width="68" height="68" viewBox="0 0 68 68" fill="none" xmlns="http://www.w3.org/2000/svg">
<path d="M6.375 34C6.375 18.7425 18.7425 6.375 34 6.375C49.2575 6.375 61.625 18.7425 61.625 34C61.625 49.2575 49.2575 61.625 34 61.625C18.7425 61.625 6.375 49.2575 6.375 34ZM44.6902 24.6273C44.4638 24.4636 44.2074 24.3461 43.9357 24.2815C43.6639 24.2169 43.382 24.2066 43.1062 24.2511C42.8304 24.2955 42.5661 24.3939 42.3284 24.5407C42.0907 24.6874 41.8842 24.8796 41.7208 25.1062L31.5293 39.219C31.4669 39.3054 31.3858 39.3766 31.292 39.4273C31.1982 39.478 31.0942 39.5069 30.9877 39.5118C30.8812 39.5167 30.775 39.4975 30.677 39.4556C30.5789 39.4138 30.4916 39.3503 30.4215 39.27L26.1545 34.3967C25.9731 34.1792 25.75 34.0003 25.4985 33.8703C25.2469 33.7403 24.9719 33.6619 24.6896 33.6397C24.4073 33.6175 24.1234 33.6519 23.8546 33.741C23.5858 33.83 23.3375 33.9719 23.1243 34.1583C22.9111 34.3447 22.7373 34.5718 22.6131 34.8263C22.489 35.0808 22.4169 35.3575 22.4012 35.6402C22.3855 35.923 22.4264 36.206 22.5217 36.4727C22.6169 36.7394 22.7644 36.9843 22.9557 37.1932L27.2227 42.0693C27.7138 42.6307 28.3253 43.074 29.0115 43.3663C29.6977 43.6586 30.4411 43.7923 31.1861 43.7574C31.9312 43.7226 32.6588 43.5201 33.3148 43.165C33.9707 42.8099 34.5381 42.3114 34.9747 41.7067L45.1662 27.5967C45.3301 27.3705 45.4478 27.1143 45.5126 26.8426C45.5773 26.5709 45.5879 26.2891 45.5437 26.0133C45.4995 25.7375 45.4014 25.4732 45.2549 25.2354C45.1085 24.9975 44.9165 24.7909 44.6902 24.6273Z" fill="#FFCF0B"/>
</svg>
