<svg width="24" height="25" viewBox="0 0 24 25" fill="none" xmlns="http://www.w3.org/2000/svg">
<path d="M0 12.5C0 5.87258 5.37258 0.5 12 0.5C18.6274 0.5 24 5.87258 24 12.5C24 19.1274 18.6274 24.5 12 24.5C5.37258 24.5 0 19.1274 0 12.5Z" fill="#FEE500"/>
<g clip-path="url(#clip0_2105_20971)">
<path fill-rule="evenodd" clip-rule="evenodd" d="M12 6.90002C8.68613 6.90002 6 8.97533 6 11.5349C6 13.1267 7.03894 14.53 8.62103 15.3647L7.95536 17.7964C7.89655 18.0112 8.14228 18.1825 8.33099 18.058L11.2489 16.1322C11.4952 16.1559 11.7454 16.1698 12 16.1698C15.3137 16.1698 18 14.0946 18 11.5349C18 8.97533 15.3137 6.90002 12 6.90002" fill="black" fill-opacity="0.85"/>
</g>
<defs>
<clipPath id="clip0_2105_20971">
<rect width="12" height="12" fill="white" transform="translate(6 6.5)"/>
</clipPath>
</defs>
</svg>
